<svg width="1921" height="1080" viewBox="0 0 1921 1080" fill="none" xmlns="http://www.w3.org/2000/svg">
<g clip-path="url(#clip0)">
<rect x="0.93457" width="1920" height="1080" fill="#004A5A"/>
<rect x="198.188" y="1039.83" width="1429.36" height="40.1737" fill="#00917F"/>
<path d="M413.465 1047.37L414.456 1048.97C415.13 1050.05 415.13 1051.82 414.456 1052.93C413.782 1054.01 412.686 1054.01 411.999 1052.93L411.008 1051.33C409.33 1048.63 408.089 1045.26 407.415 1041.58C409.7 1042.66 411.774 1044.66 413.465 1047.37Z" fill="#01B09B"/>
<path d="M416.266 1047.37L415.275 1048.97C414.601 1050.05 414.601 1051.82 415.275 1052.93C415.949 1054.01 417.045 1054.01 417.732 1052.93L418.723 1051.33C420.4 1048.63 421.642 1045.26 422.316 1041.58C420.017 1042.66 417.943 1044.66 416.266 1047.37Z" fill="#01B09B"/>
<path d="M1353.06 1048.5L1354.29 1050.48C1355.12 1051.83 1355.12 1054.02 1354.29 1055.39C1353.45 1056.74 1352.09 1056.74 1351.24 1055.39L1350.01 1053.41C1347.93 1050.06 1346.39 1045.88 1345.55 1041.31C1348.39 1042.66 1350.96 1045.15 1353.06 1048.5Z" fill="#01B09B"/>
<path d="M1356.53 1048.5L1355.3 1050.48C1354.47 1051.83 1354.47 1054.02 1355.3 1055.39C1356.14 1056.74 1357.5 1056.74 1358.35 1055.39L1359.58 1053.41C1361.66 1050.06 1363.2 1045.88 1364.04 1041.31C1361.19 1042.66 1358.61 1045.14 1356.53 1048.5Z" fill="#01B09B"/>
<path d="M1357.25 1048.5L1358.48 1050.48C1359.32 1051.83 1359.32 1054.02 1358.48 1055.39C1357.65 1056.74 1356.29 1056.74 1355.43 1055.39L1354.2 1053.41C1352.12 1050.06 1350.58 1045.88 1349.75 1041.31C1352.58 1042.66 1355.16 1045.15 1357.25 1048.5Z" fill="#01B09B"/>
<path d="M1360.73 1048.5L1359.5 1050.48C1358.66 1051.83 1358.66 1054.02 1359.5 1055.39C1360.33 1056.74 1361.69 1056.74 1362.55 1055.39L1363.78 1053.41C1365.86 1050.06 1367.4 1045.88 1368.23 1041.31C1365.38 1042.66 1362.81 1045.14 1360.73 1048.5Z" fill="#01B09B"/>
<path d="M630.014 1049.24L629.3 1050.39C628.814 1051.17 628.814 1052.45 629.3 1053.24C629.785 1054.03 630.575 1054.03 631.071 1053.24L631.785 1052.09C632.994 1050.14 633.888 1047.72 634.374 1045.06C632.727 1045.85 631.232 1047.29 630.014 1049.24Z" fill="#01B09B"/>
<path d="M627.995 1049.24L628.709 1050.39C629.195 1051.17 629.195 1052.45 628.709 1053.24C628.224 1054.03 627.433 1054.03 626.938 1053.24L626.224 1052.09C625.015 1050.14 624.12 1047.72 623.635 1045.06C625.291 1045.85 626.786 1047.29 627.995 1049.24Z" fill="#01B09B"/>
<path d="M541.234 1049.24L540.519 1050.39C540.034 1051.17 540.034 1052.45 540.519 1053.24C541.005 1054.03 541.795 1054.03 542.29 1053.24L543.004 1052.09C544.213 1050.14 545.108 1047.72 545.594 1045.06C543.947 1045.85 542.452 1047.29 541.234 1049.24Z" fill="#01B09B"/>
<path d="M539.215 1049.24L539.929 1050.39C540.414 1051.17 540.414 1052.45 539.929 1053.24C539.443 1054.03 538.653 1054.03 538.158 1053.24L537.444 1052.09C536.235 1050.14 535.34 1047.72 534.855 1045.06C536.511 1045.85 538.006 1047.29 539.215 1049.24Z" fill="#01B09B"/>
<path d="M787.091 1048.98L786.213 1050.4C785.616 1051.36 785.616 1052.93 786.213 1053.91C786.81 1054.87 787.781 1054.87 788.39 1053.91L789.268 1052.49C790.754 1050.1 791.854 1047.12 792.451 1043.85C790.426 1044.81 788.589 1046.59 787.091 1048.98Z" fill="#01B09B"/>
<path d="M784.61 1048.98L785.488 1050.4C786.085 1051.36 786.085 1052.93 785.488 1053.91C784.891 1054.87 783.92 1054.87 783.311 1053.91L782.433 1052.49C780.947 1050.1 779.847 1047.12 779.25 1043.85C781.286 1044.81 783.124 1046.59 784.61 1048.98Z" fill="#01B09B"/>
<path d="M1244.55 1048.98L1243.68 1050.4C1243.08 1051.36 1243.08 1052.93 1243.68 1053.91C1244.27 1054.87 1245.24 1054.87 1245.85 1053.91L1246.73 1052.49C1248.22 1050.1 1249.32 1047.12 1249.91 1043.85C1247.89 1044.81 1246.05 1046.59 1244.55 1048.98Z" fill="#01B09B"/>
<path d="M1242.07 1048.98L1242.95 1050.4C1243.55 1051.36 1243.55 1052.93 1242.95 1053.91C1242.35 1054.87 1241.38 1054.87 1240.77 1053.91L1239.9 1052.49C1238.41 1050.1 1237.31 1047.12 1236.71 1043.85C1238.75 1044.81 1240.59 1046.59 1242.07 1048.98Z" fill="#01B09B"/>
<rect x="879.503" y="253.558" width="13.6996" height="182.887" transform="rotate(-20 879.503 253.558)" fill="#00636B"/>
<rect x="437.804" y="835.691" width="57.1344" height="18.29" rx="4" fill="#003440" fill-opacity="0.3"/>
<rect x="418.796" y="857.723" width="57.1344" height="18.29" rx="4" fill="#003440" fill-opacity="0.3"/>
<rect x="399.789" y="879.756" width="57.1344" height="18.29" rx="4" fill="#003440" fill-opacity="0.3"/>
<rect x="407.415" y="901.788" width="57.1344" height="18.29" rx="4" fill="#003440" fill-opacity="0.3"/>
<rect x="361.773" y="923.821" width="57.1344" height="18.29" rx="4" fill="#003440" fill-opacity="0.3"/>
<rect x="377.118" y="835.691" width="57.1344" height="18.29" rx="4" fill="#003440" fill-opacity="0.3"/>
<rect x="358.11" y="857.723" width="57.1344" height="18.29" rx="4" fill="#003440" fill-opacity="0.3"/>
<rect x="339.104" y="879.756" width="57.1344" height="18.29" rx="4" fill="#003440" fill-opacity="0.3"/>
<rect x="346.729" y="901.788" width="57.1344" height="18.29" rx="4" fill="#003440" fill-opacity="0.3"/>
<rect x="301.088" y="923.821" width="57.1344" height="18.29" rx="4" fill="#003440" fill-opacity="0.3"/>
<rect x="316.433" y="835.691" width="57.1344" height="18.29" rx="4" fill="#003440" fill-opacity="0.3"/>
<rect x="297.425" y="857.723" width="57.1344" height="18.29" rx="4" fill="#003440" fill-opacity="0.3"/>
<rect x="278.417" y="879.756" width="57.1344" height="18.29" rx="4" fill="#003440" fill-opacity="0.3"/>
<rect x="286.044" y="901.788" width="57.1344" height="18.29" rx="4" fill="#003440" fill-opacity="0.3"/>
<rect x="240.402" y="923.821" width="57.1344" height="18.29" rx="4" fill="#003440" fill-opacity="0.3"/>
<rect x="255.747" y="835.691" width="57.1344" height="18.29" rx="4" fill="#003440" fill-opacity="0.3"/>
<rect x="236.739" y="857.723" width="57.1344" height="18.29" rx="4" fill="#003440" fill-opacity="0.3"/>
<rect x="225.358" y="901.788" width="57.1344" height="18.29" rx="4" fill="#003440" fill-opacity="0.3"/>
<rect x="179.717" y="923.821" width="57.1344" height="18.29" rx="4" fill="#003440" fill-opacity="0.3"/>
<rect x="1112.3" y="23.2121" width="57.1344" height="18.29" rx="4" fill="#01B09B" fill-opacity="0.2"/>
<rect x="1093.29" y="45.2446" width="57.1344" height="18.29" rx="4" fill="#01B09B" fill-opacity="0.2"/>
<rect x="1074.28" y="67.277" width="57.1344" height="18.29" rx="4" fill="#01B09B" fill-opacity="0.2"/>
<rect x="1081.91" y="89.3095" width="57.1344" height="18.29" rx="4" fill="#01B09B" fill-opacity="0.2"/>
<rect x="1036.27" y="111.342" width="57.1344" height="18.29" rx="4" fill="#01B09B" fill-opacity="0.2"/>
<rect x="1051.61" y="23.2121" width="57.1344" height="18.29" rx="4" fill="#01B09B" fill-opacity="0.2"/>
<rect x="1032.6" y="45.2446" width="57.1344" height="18.29" rx="4" fill="#01B09B" fill-opacity="0.2"/>
<rect x="1013.6" y="67.277" width="57.1344" height="18.29" rx="4" fill="#01B09B" fill-opacity="0.2"/>
<rect x="1021.22" y="89.3095" width="57.1344" height="18.29" rx="4" fill="#01B09B" fill-opacity="0.2"/>
<rect x="975.58" y="111.342" width="57.1344" height="18.29" rx="4" fill="#01B09B" fill-opacity="0.2"/>
<rect x="990.925" y="23.2121" width="57.1344" height="18.29" rx="4" fill="#01B09B" fill-opacity="0.2"/>
<rect x="971.917" y="45.2446" width="57.1344" height="18.29" rx="4" fill="#01B09B" fill-opacity="0.2"/>
<rect x="952.909" y="67.277" width="57.1344" height="18.29" rx="4" fill="#01B09B" fill-opacity="0.2"/>
<rect x="960.536" y="89.3095" width="57.1344" height="18.29" rx="4" fill="#01B09B" fill-opacity="0.2"/>
<rect x="914.895" y="111.342" width="57.1344" height="18.29" rx="4" fill="#01B09B" fill-opacity="0.2"/>
<rect x="930.239" y="23.2121" width="57.1344" height="18.29" rx="4" fill="#01B09B" fill-opacity="0.2"/>
<rect x="911.231" y="45.2446" width="57.1344" height="18.29" rx="4" fill="#01B09B" fill-opacity="0.2"/>
<rect x="899.851" y="89.3095" width="57.1344" height="18.29" rx="4" fill="#01B09B" fill-opacity="0.2"/>
<rect x="854.209" y="111.342" width="57.1344" height="18.29" rx="4" fill="#01B09B" fill-opacity="0.2"/>
<circle r="151.085" transform="matrix(-1 0 0 1 1831.25 909.194)" fill="#01B09B" fill-opacity="0.3"/>
<mask id="mask0" mask-type="alpha" maskUnits="userSpaceOnUse" x="1680" y="758" width="303" height="303">
<circle r="151.085" transform="matrix(-1 0 0 1 1831.25 909.194)" fill="#01B09B" fill-opacity="0.3"/>
</mask>
<g mask="url(#mask0)">
<line y1="-1.5" x2="340.107" y2="-1.5" transform="matrix(4.37114e-08 1 1 -4.37114e-08 1816.45 742.292)" stroke="white" stroke-width="3"/>
<line y1="-1.5" x2="133.058" y2="-1.5" transform="matrix(-0.786587 0.617479 0.617479 0.786587 1921.11 776.685)" stroke="white" stroke-width="3"/>
<line x1="1710.84" y1="816.586" x2="1815.5" y2="898.746" stroke="white" stroke-width="3"/>
<path d="M1689 823.498L1815.16 920.21" stroke="white" stroke-width="2"/>
<line x1="1.5" y1="-1.5" x2="233.464" y2="-1.5" transform="matrix(-0.786587 0.617479 0.617479 0.786587 2000.67 810.904)" stroke="white" stroke-width="3" stroke-linecap="round"/>
<path d="M2037.61 821.027L1814.84 991.808" stroke="white" stroke-width="2" stroke-linecap="round"/>
</g>
<rect x="-1.81152" y="1052.09" width="1704.58" height="27.9058" fill="#01B09B"/>
<path d="M1509.22 209.13C1509.22 202.094 1514.93 196.38 1521.97 196.38C1522.96 196.38 1523.92 196.51 1524.85 196.715C1525.73 189.363 1532 183.648 1539.6 183.648C1547.1 183.648 1553.3 189.214 1554.3 196.454C1560.8 197.05 1565.88 202.504 1565.88 209.13C1565.88 213.69 1563.48 217.673 1559.88 219.925C1558.41 221.135 1556.53 221.88 1554.47 221.88H1521.02C1519.61 221.88 1518.27 221.526 1517.09 220.912C1512.48 218.995 1509.22 214.453 1509.22 209.13Z" fill="#E8E8E8"/>
<rect width="57.1344" height="18.29" rx="4" transform="matrix(-1 0 0 1 1623.01 365.257)" fill="#003440" fill-opacity="0.3"/>
<rect width="57.1344" height="18.29" rx="4" transform="matrix(-1 0 0 1 1642.02 387.289)" fill="#003440" fill-opacity="0.3"/>
<rect width="57.1344" height="18.29" rx="4" transform="matrix(-1 0 0 1 1661.03 409.322)" fill="#003440" fill-opacity="0.3"/>
<rect width="57.1344" height="18.29" rx="4" transform="matrix(-1 0 0 1 1653.4 431.354)" fill="#003440" fill-opacity="0.3"/>
<rect width="57.1344" height="18.29" rx="4" transform="matrix(-1 0 0 1 1699.04 453.387)" fill="#003440" fill-opacity="0.3"/>
<rect width="57.1344" height="18.29" rx="4" transform="matrix(-1 0 0 1 1683.7 365.257)" fill="#003440" fill-opacity="0.3"/>
<rect width="57.1344" height="18.29" rx="4" transform="matrix(-1 0 0 1 1702.71 387.289)" fill="#003440" fill-opacity="0.3"/>
<rect width="57.1344" height="18.29" rx="4" transform="matrix(-1 0 0 1 1721.71 409.322)" fill="#003440" fill-opacity="0.3"/>
<rect width="57.1344" height="18.29" rx="4" transform="matrix(-1 0 0 1 1714.09 431.354)" fill="#003440" fill-opacity="0.3"/>
<rect width="57.1344" height="18.29" rx="4" transform="matrix(-1 0 0 1 1759.73 453.387)" fill="#003440" fill-opacity="0.3"/>
<rect width="57.1344" height="18.29" rx="4" transform="matrix(-1 0 0 1 1744.38 365.257)" fill="#003440" fill-opacity="0.3"/>
<rect width="57.1344" height="18.29" rx="4" transform="matrix(-1 0 0 1 1763.39 387.289)" fill="#003440" fill-opacity="0.3"/>
<rect width="57.1344" height="18.29" rx="4" transform="matrix(-1 0 0 1 1782.4 409.322)" fill="#003440" fill-opacity="0.3"/>
<rect width="57.1344" height="18.29" rx="4" transform="matrix(-1 0 0 1 1774.77 431.354)" fill="#003440" fill-opacity="0.3"/>
<rect width="57.1344" height="18.29" rx="4" transform="matrix(-1 0 0 1 1820.41 453.387)" fill="#003440" fill-opacity="0.3"/>
<rect width="57.1344" height="18.29" rx="4" transform="matrix(-1 0 0 1 1805.07 365.257)" fill="#003440" fill-opacity="0.3"/>
<rect width="57.1344" height="18.29" rx="4" transform="matrix(-1 0 0 1 1824.08 387.289)" fill="#003440" fill-opacity="0.3"/>
<rect width="57.1344" height="18.29" rx="4" transform="matrix(-1 0 0 1 1835.46 431.354)" fill="#003440" fill-opacity="0.3"/>
<rect width="57.1344" height="18.29" rx="4" transform="matrix(-1 0 0 1 1881.1 453.387)" fill="#003440" fill-opacity="0.3"/>
<mask id="mask1" mask-type="alpha" maskUnits="userSpaceOnUse" x="0" y="0" width="1921" height="1080">
<rect x="0.892578" width="1920" height="1080" fill="#C4C4C4"/>
</mask>
<g mask="url(#mask1)">
<circle cx="1695.08" cy="1003.2" r="122.914" fill="#00C6AE" fill-opacity="0.2"/>
<mask id="mask2" mask-type="alpha" maskUnits="userSpaceOnUse" x="1572" y="880" width="246" height="247">
<circle cx="1695.08" cy="1003.2" r="122.914" fill="#00C6AE" fill-opacity="0.3"/>
</mask>
<g mask="url(#mask2)">
<line x1="1708.62" y1="867.415" x2="1708.62" y2="1144.11" stroke="white" stroke-width="3"/>
<line x1="1622.9" y1="894.216" x2="1708.05" y2="961.057" stroke="white" stroke-width="3"/>
<line y1="-1.5" x2="108.249" y2="-1.5" transform="matrix(-0.786587 0.617479 0.617479 0.786587 1793.79 928.816)" stroke="white" stroke-width="3"/>
<path d="M1810.81 933.48L1708.17 1012.16" stroke="white" stroke-width="2"/>
<line x1="1559.35" y1="922.981" x2="1707.35" y2="1039.16" stroke="white" stroke-width="3" stroke-linecap="round"/>
<path d="M1527.2 931.469L1708.43 1070.41" stroke="white" stroke-width="2" stroke-linecap="round"/>
</g>
<circle r="151.085" transform="matrix(-1 0 0 1 1858.08 942.111)" fill="#01B09B"/>
<mask id="mask3" mask-type="alpha" maskUnits="userSpaceOnUse" x="1706" y="791" width="304" height="303">
<circle r="151.085" transform="matrix(-1 0 0 1 1858.08 942.111)" fill="#01B09B"/>
</mask>
<g mask="url(#mask3)">
<line y1="-1.5" x2="340.107" y2="-1.5" transform="matrix(4.37114e-08 1 1 -4.37114e-08 1843.28 775.208)" stroke="white" stroke-width="3"/>
<line y1="-1.5" x2="133.058" y2="-1.5" transform="matrix(-0.786587 0.617479 0.617479 0.786587 1947.94 809.601)" stroke="white" stroke-width="3"/>
<line x1="1737.68" y1="849.502" x2="1842.34" y2="931.662" stroke="white" stroke-width="3"/>
<path d="M1715.84 856.414L1841.99 953.126" stroke="white" stroke-width="2"/>
<line x1="1.5" y1="-1.5" x2="233.464" y2="-1.5" transform="matrix(-0.786587 0.617479 0.617479 0.786587 2027.51 843.82)" stroke="white" stroke-width="3" stroke-linecap="round"/>
<path d="M2064.45 853.943L1841.67 1024.72" stroke="white" stroke-width="2" stroke-linecap="round"/>
</g>
<circle cx="1721.92" cy="1018.36" r="122.914" fill="#00C6AE"/>
<mask id="mask4" mask-type="alpha" maskUnits="userSpaceOnUse" x="1599" y="895" width="246" height="247">
<circle cx="1721.92" cy="1018.36" r="122.914" fill="#00C6AE"/>
</mask>
<g mask="url(#mask4)">
<line x1="1735.46" y1="882.576" x2="1735.46" y2="1159.27" stroke="white" stroke-width="3"/>
<line x1="1649.74" y1="909.376" x2="1734.89" y2="976.217" stroke="white" stroke-width="3"/>
<line y1="-1.5" x2="108.249" y2="-1.5" transform="matrix(-0.786587 0.617479 0.617479 0.786587 1820.63 943.976)" stroke="white" stroke-width="3"/>
<path d="M1837.64 948.64L1735.01 1027.32" stroke="white" stroke-width="2"/>
<line x1="1586.19" y1="938.141" x2="1734.19" y2="1054.32" stroke="white" stroke-width="3" stroke-linecap="round"/>
<path d="M1554.03 946.629L1735.27 1085.57" stroke="white" stroke-width="2" stroke-linecap="round"/>
</g>
<circle cx="105.087" cy="909.194" r="151.085" fill="#01B09B" fill-opacity="0.3"/>
<mask id="mask5" mask-type="alpha" maskUnits="userSpaceOnUse" x="-46" y="758" width="303" height="303">
<circle cx="105.087" cy="909.194" r="151.085" fill="#01B09B" fill-opacity="0.3"/>
</mask>
<g mask="url(#mask5)">
<line x1="121.388" y1="742.292" x2="121.388" y2="1082.4" stroke="white" stroke-width="3"/>
<line x1="16.1518" y1="775.505" x2="120.814" y2="857.666" stroke="white" stroke-width="3"/>
<line y1="-1.5" x2="133.058" y2="-1.5" transform="matrix(-0.786587 0.617479 0.617479 0.786587 226.418 817.765)" stroke="white" stroke-width="3"/>
<path d="M247.335 823.498L121.179 920.21" stroke="white" stroke-width="2"/>
<line x1="-62.2347" y1="810.651" x2="120.225" y2="953.884" stroke="white" stroke-width="3" stroke-linecap="round"/>
<path d="M-101.277 821.027L121.498 991.808" stroke="white" stroke-width="2" stroke-linecap="round"/>
</g>
<circle r="122.914" transform="matrix(-1 0 0 1 241.251 1003.2)" fill="#00C6AE" fill-opacity="0.2"/>
<mask id="mask6" mask-type="alpha" maskUnits="userSpaceOnUse" x="118" y="880" width="247" height="247">
<circle r="122.914" transform="matrix(-1 0 0 1 241.251 1003.2)" fill="#00C6AE" fill-opacity="0.3"/>
</mask>
<g mask="url(#mask6)">
<line y1="-1.5" x2="276.692" y2="-1.5" transform="matrix(4.37114e-08 1 1 -4.37114e-08 229.21 867.415)" stroke="white" stroke-width="3"/>
<line y1="-1.5" x2="108.249" y2="-1.5" transform="matrix(-0.786587 0.617479 0.617479 0.786587 314.357 895.396)" stroke="white" stroke-width="3"/>
<line x1="143.469" y1="927.636" x2="228.616" y2="994.478" stroke="white" stroke-width="3"/>
<path d="M125.526 933.48L228.159 1012.16" stroke="white" stroke-width="2"/>
<line x1="1.5" y1="-1.5" x2="189.653" y2="-1.5" transform="matrix(-0.786587 0.617479 0.617479 0.786587 379.088 923.234)" stroke="white" stroke-width="3" stroke-linecap="round"/>
<path d="M409.138 931.469L227.9 1070.41" stroke="white" stroke-width="2" stroke-linecap="round"/>
</g>
<circle cx="78.2498" cy="942.111" r="151.085" fill="#01B09B"/>
<mask id="mask7" mask-type="alpha" maskUnits="userSpaceOnUse" x="-73" y="791" width="303" height="303">
<circle cx="78.2498" cy="942.111" r="151.085" fill="#01B09B"/>
</mask>
<g mask="url(#mask7)">
<line x1="94.5518" y1="775.208" x2="94.5517" y2="1115.32" stroke="white" stroke-width="3"/>
<line x1="-10.6841" y1="808.421" x2="93.978" y2="890.582" stroke="white" stroke-width="3"/>
<line y1="-1.5" x2="133.058" y2="-1.5" transform="matrix(-0.786587 0.617479 0.617479 0.786587 199.582 850.682)" stroke="white" stroke-width="3"/>
<path d="M220.499 856.414L94.3428 953.126" stroke="white" stroke-width="2"/>
<line x1="-89.0707" y1="843.567" x2="93.3894" y2="986.8" stroke="white" stroke-width="3" stroke-linecap="round"/>
<path d="M-128.113 853.943L94.6618 1024.72" stroke="white" stroke-width="2" stroke-linecap="round"/>
</g>
<circle r="122.914" transform="matrix(-1 0 0 1 214.414 1018.36)" fill="#00C6AE"/>
<mask id="mask8" mask-type="alpha" maskUnits="userSpaceOnUse" x="91" y="895" width="247" height="247">
<circle r="122.914" transform="matrix(-1 0 0 1 214.414 1018.36)" fill="#00C6AE"/>
</mask>
<g mask="url(#mask8)">
<line y1="-1.5" x2="276.692" y2="-1.5" transform="matrix(4.37114e-08 1 1 -4.37114e-08 202.373 882.576)" stroke="white" stroke-width="3"/>
<line y1="-1.5" x2="108.249" y2="-1.5" transform="matrix(-0.786587 0.617479 0.617479 0.786587 287.521 910.556)" stroke="white" stroke-width="3"/>
<line x1="116.632" y1="942.797" x2="201.779" y2="1009.64" stroke="white" stroke-width="3"/>
<path d="M98.689 948.64L201.322 1027.32" stroke="white" stroke-width="2"/>
<line x1="1.5" y1="-1.5" x2="189.653" y2="-1.5" transform="matrix(-0.786587 0.617479 0.617479 0.786587 352.251 938.395)" stroke="white" stroke-width="3" stroke-linecap="round"/>
<path d="M382.301 946.629L201.064 1085.57" stroke="white" stroke-width="2" stroke-linecap="round"/>
</g>
</g>
<path d="M690.216 184.046C690.216 175.295 697.323 168.187 706.075 168.187C707.302 168.187 708.505 168.349 709.663 168.604C710.751 159.459 718.553 152.352 727.999 152.352C737.329 152.352 745.038 159.274 746.289 168.28C754.368 169.021 760.689 175.804 760.689 184.046C760.689 189.718 757.702 194.673 753.234 197.474C751.405 198.979 749.067 199.905 746.497 199.905H704.894C703.134 199.905 701.467 199.465 700.009 198.701C694.267 196.316 690.216 190.667 690.216 184.046Z" fill="#00C6AE" fill-opacity="0.6"/>
<path d="M1433.79 378.112C1433.79 373.048 1429.68 368.935 1424.61 368.935C1423.9 368.935 1423.21 369.028 1422.54 369.176C1421.91 363.884 1417.39 359.77 1411.93 359.77C1406.53 359.77 1402.07 363.776 1401.34 368.988C1396.67 369.417 1393.01 373.342 1393.01 378.112C1393.01 381.394 1394.74 384.262 1397.32 385.883C1398.38 386.754 1399.73 387.289 1401.22 387.289H1425.3C1426.32 387.289 1427.28 387.035 1428.12 386.593C1431.45 385.213 1433.79 381.944 1433.79 378.112Z" fill="#00C6AE" fill-opacity="0.8"/>
<path d="M88.6377 437.126C88.6377 428.374 95.7452 421.267 104.496 421.267C105.723 421.267 106.927 421.429 108.085 421.684C109.173 412.539 116.975 405.431 126.421 405.431C135.751 405.431 143.46 412.354 144.711 421.36C152.79 422.1 159.111 428.884 159.111 437.126C159.111 442.798 156.124 447.752 151.656 450.554C149.827 452.058 147.489 452.984 144.919 452.984H103.316C101.556 452.984 99.8893 452.545 98.4308 451.781C92.6892 449.396 88.6377 443.747 88.6377 437.126Z" fill="#E8E8E8" fill-opacity="0.7"/>
<path d="M300.552 372.138C300.552 365.842 305.665 360.729 311.961 360.729C312.843 360.729 313.709 360.846 314.542 361.029C315.325 354.45 320.938 349.337 327.733 349.337C334.445 349.337 339.992 354.317 340.891 360.796C346.704 361.329 351.251 366.209 351.251 372.138C351.251 376.219 349.102 379.783 345.888 381.798C344.572 382.881 342.89 383.547 341.041 383.547H311.111C309.845 383.547 308.646 383.231 307.597 382.681C303.466 380.965 300.552 376.902 300.552 372.138Z" fill="#E8E8E8"/>
<path d="M1318.65 775.662C1318.65 767.183 1325.54 760.297 1334.02 760.297C1335.21 760.297 1336.37 760.454 1337.49 760.701C1338.55 751.841 1346.11 744.955 1355.26 744.955C1364.3 744.955 1371.77 751.662 1372.98 760.387C1380.81 761.105 1386.93 767.677 1386.93 775.662C1386.93 781.157 1384.04 785.957 1379.71 788.671C1377.93 790.129 1375.67 791.026 1373.18 791.026H1332.87C1331.17 791.026 1329.55 790.6 1328.14 789.86C1322.58 787.549 1318.65 782.076 1318.65 775.662Z" fill="#E8E8E8"/>
<circle cx="45.9789" cy="57.7123" r="134.533" fill="#E8E8E8" fill-opacity="0.2"/>
<circle cx="65.0914" cy="81.698" r="174.199" fill="#E8E8E8" fill-opacity="0.14"/>
<circle cx="45.9789" cy="57.7123" r="96.2758" fill="#E8E8E8" fill-opacity="0.5"/>
<circle cx="45.9789" cy="57.7123" r="69.3451" fill="#E8E8E8"/>
<path d="M1550.45 553.102C1550.45 544.624 1543.56 537.738 1535.08 537.738C1533.89 537.738 1532.73 537.895 1531.6 538.142C1530.55 529.282 1522.99 522.396 1513.84 522.396C1504.8 522.396 1497.33 529.102 1496.12 537.828C1488.29 538.545 1482.17 545.117 1482.17 553.102C1482.17 558.598 1485.06 563.397 1489.39 566.111C1491.16 567.569 1493.43 568.467 1495.92 568.467H1536.22C1537.93 568.467 1539.54 568.04 1540.96 567.3C1546.52 564.99 1550.45 559.517 1550.45 553.102Z" fill="#E8E8E8"/>
<path d="M269.775 597.526C269.775 589.047 262.889 582.161 254.411 582.161C253.222 582.161 252.056 582.318 250.934 582.565C249.88 573.705 242.321 566.819 233.17 566.819C224.131 566.819 216.662 573.526 215.451 582.251C207.623 582.969 201.499 589.541 201.499 597.526C201.499 603.021 204.393 607.821 208.722 610.535C210.494 611.993 212.759 612.89 215.249 612.89H255.555C257.26 612.89 258.875 612.464 260.288 611.724C265.85 609.413 269.775 603.941 269.775 597.526Z" fill="#00C6AE" fill-opacity="0.9"/>
<path d="M538.355 325.735C538.355 319.44 543.469 314.326 549.764 314.326C550.647 314.326 551.513 314.443 552.346 314.626C553.129 308.047 558.742 302.934 565.537 302.934C572.249 302.934 577.795 307.914 578.695 314.393C584.507 314.926 589.054 319.806 589.054 325.735C589.054 329.816 586.906 333.38 583.691 335.395C582.376 336.478 580.693 337.144 578.845 337.144H548.915C547.649 337.144 546.45 336.828 545.401 336.278C541.27 334.563 538.355 330.499 538.355 325.735Z" fill="#E8E8E8"/>
<path d="M1641.91 718.446C1641.91 712.15 1647.02 707.037 1653.32 707.037C1654.2 707.037 1655.07 707.153 1655.9 707.337C1656.68 700.758 1662.29 695.645 1669.09 695.645C1675.8 695.645 1681.35 700.625 1682.25 707.104C1688.06 707.637 1692.61 712.517 1692.61 718.446C1692.61 722.526 1690.46 726.091 1687.24 728.106C1685.93 729.189 1684.25 729.855 1682.4 729.855H1652.47C1651.2 729.855 1650 729.538 1648.95 728.989C1644.82 727.273 1641.91 723.209 1641.91 718.446Z" fill="#00948C"/>
<path d="M1513.01 1056.37C1510.33 1056.29 1507.63 1056.2 1505.06 1056.86C1502.48 1057.52 1499.98 1059.03 1498.75 1061.42C1497.51 1063.8 1497.89 1067.1 1500.01 1068.72C1500.87 1069.38 1501.93 1069.71 1502.96 1070.04C1511.01 1072.51 1519.24 1074.33 1527.56 1075.51C1528.87 1075.7 1530.25 1075.86 1531.51 1075.45C1532.63 1075.07 1533.57 1074.27 1534.46 1073.48C1536.88 1071.36 1539.51 1068.72 1539.24 1065.51C1539.01 1062.76 1536.66 1060.65 1534.21 1059.42C1530.78 1057.71 1526.92 1057.14 1523.14 1056.61C1520.95 1056.29 1518.77 1055.98 1516.57 1055.66C1513.04 1055.16 1509.16 1054.72 1506.15 1056.66" fill="#00907F"/>
<path d="M1519.95 1031.02H1513.71V1065.62H1519.95V1031.02Z" fill="#8C6138"/>
<path d="M1523.08 1031.02H1519.95V1065.62H1523.08V1031.02Z" fill="#805031"/>
<path d="M1518.75 1005.16L1491.03 988.729L1518.75 972.294L1546.49 988.729L1518.75 1005.16Z" fill="#01B09B"/>
<path d="M1518.75 1035.31L1491.03 1020.88V988.729L1518.75 1005.16V1035.31Z" fill="#00636B"/>
<path d="M1546.49 988.729L1518.75 1005.23V1035.31L1546.49 1019.48V988.729Z" fill="#00907F"/>
<path d="M1186.35 1059.63C1184.59 1059.58 1182.81 1059.52 1181.11 1059.95C1179.41 1060.39 1177.77 1061.38 1176.95 1062.96C1176.14 1064.52 1176.39 1066.7 1177.79 1067.76C1178.35 1068.2 1179.05 1068.42 1179.73 1068.63C1185.03 1070.26 1190.45 1071.46 1195.94 1072.24C1196.8 1072.36 1197.71 1072.47 1198.54 1072.2C1199.28 1071.95 1199.9 1071.42 1200.48 1070.9C1202.08 1069.5 1203.81 1067.76 1203.63 1065.65C1203.48 1063.84 1201.94 1062.45 1200.32 1061.64C1198.06 1060.51 1195.52 1060.14 1193.03 1059.78C1191.58 1059.58 1190.14 1059.37 1188.69 1059.16C1186.37 1058.83 1183.82 1058.54 1181.83 1059.82" fill="#00907F"/>
<path d="M1190.93 1042.93H1186.81V1065.72H1190.93V1042.93Z" fill="#8C6138"/>
<path d="M1192.98 1042.92H1190.93V1065.72H1192.98V1042.92Z" fill="#805031"/>
<path d="M1190.13 1025.89L1171.87 1015.06L1190.13 1004.23L1208.41 1015.06L1190.13 1025.89Z" fill="#01B09B"/>
<path d="M1190.13 1045.75L1171.87 1036.24V1015.06L1190.13 1025.89V1045.75Z" fill="#00636B"/>
<path d="M1208.41 1015.06L1190.13 1025.93V1045.75L1208.41 1035.32V1015.06Z" fill="#00907F"/>
<ellipse cx="568.158" cy="1059.6" rx="21.6089" ry="4.81176" fill="#00907F"/>
<path d="M564.584 916.66H571.732L574.373 1059.6H561.943L564.584 916.66Z" fill="#A9A9A9"/>
<path d="M503.293 941.809L502.086 938.494L567.928 913.142L570.026 918.907L503.293 941.809Z" fill="#B0B0B0"/>
<path d="M629.71 940.507L630.917 937.192L565.074 911.84L562.976 917.605L629.71 940.507Z" fill="#B0B0B0"/>
<path d="M569.921 846.117L566.394 846.117L565.09 916.66L571.225 916.66L569.921 846.117Z" fill="#B0B0B0"/>
<circle cx="568.157" cy="914.884" r="7.99021" fill="#DCDCDC"/>
<ellipse cx="818.308" cy="1066.49" rx="18.4592" ry="4.11039" fill="#00907F"/>
<path d="M816.169 969.991H821.029L822.825 1067.19H814.373L816.169 969.991Z" fill="#A9A9A9"/>
<path d="M774.489 987.093L773.668 984.839L818.443 967.599L819.87 971.519L774.489 987.093Z" fill="#B0B0B0"/>
<path d="M860.456 986.208L861.277 983.954L816.502 966.714L815.075 970.634L860.456 986.208Z" fill="#B0B0B0"/>
<path d="M819.798 922.02L817.399 922.02L816.513 969.991L820.685 969.991L819.798 922.02Z" fill="#B0B0B0"/>
<circle cx="818.599" cy="968.784" r="5.43359" fill="#DCDCDC"/>
<ellipse cx="367.406" cy="1058.19" rx="9.10937" ry="2.02842" fill="#00907F"/>
<path d="M366.351 1010.57H368.75L369.636 1058.54H365.465L366.351 1010.57Z" fill="#A9A9A9"/>
<path d="M345.782 1019.01L345.377 1017.9L367.473 1009.39L368.177 1011.32L345.782 1019.01Z" fill="#B0B0B0"/>
<path d="M388.206 1018.57L388.611 1017.46L366.515 1008.95L365.811 1010.89L388.206 1018.57Z" fill="#B0B0B0"/>
<path d="M368.142 986.897L366.958 986.897L366.521 1010.57L368.579 1010.57L368.142 986.897Z" fill="#B0B0B0"/>
<circle cx="367.55" cy="1009.97" r="2.68141" fill="#DCDCDC"/>
<rect x="1336.93" y="843.372" width="109.354" height="197.658" fill="#C4C4C4"/>
<rect x="1350.75" y="909.395" width="40.126" height="10.6602" fill="#A3A3A3" fill-opacity="0.5"/>
<rect x="1350.75" y="977.404" width="40.126" height="10.6602" fill="#A3A3A3" fill-opacity="0.5"/>
<rect x="1394.43" y="909.346" width="40.126" height="10.6602" fill="#A3A3A3" fill-opacity="0.5"/>
<rect x="1394.43" y="977.356" width="40.126" height="10.6602" fill="#A3A3A3" fill-opacity="0.5"/>
<rect x="1328.21" y="843.372" width="8.72779" height="197.658" fill="#A0A0A0"/>
<rect x="1446.29" y="843.372" width="8.72779" height="197.658" fill="#A0A0A0"/>
<rect x="1336.93" y="843.372" width="109.354" height="11.2948" fill="#B5B5B5"/>
<rect x="1313.75" y="1041.03" width="154.266" height="11.2948" fill="#B5B5B5"/>
<rect x="1324.62" y="843.372" width="12.3115" height="11.2948" fill="#7A7A7A"/>
<rect x="1324.62" y="860.368" width="12.3115" height="11.2948" fill="#7A7A7A"/>
<rect x="1324.62" y="877.363" width="12.3115" height="11.2948" fill="#7A7A7A"/>
<rect x="1324.62" y="894.359" width="12.3115" height="11.2948" fill="#7A7A7A"/>
<rect x="1324.62" y="911.354" width="12.3115" height="11.2948" fill="#7A7A7A"/>
<rect x="1324.62" y="928.35" width="12.3115" height="11.2948" fill="#7A7A7A"/>
<rect x="1324.62" y="945.345" width="12.3115" height="11.2948" fill="#7A7A7A"/>
<rect x="1324.62" y="962.341" width="12.3115" height="11.2948" fill="#7A7A7A"/>
<rect x="1324.62" y="979.336" width="12.3115" height="11.2948" fill="#7A7A7A"/>
<rect x="1324.62" y="996.332" width="12.3115" height="11.2948" fill="#7A7A7A"/>
<rect x="1324.62" y="1013.33" width="12.3115" height="11.2948" fill="#7A7A7A"/>
<rect x="1324.62" y="1030.32" width="12.3115" height="11.2948" fill="#7A7A7A"/>
<rect x="1446.29" y="843.372" width="12.3115" height="11.2948" fill="#7A7A7A"/>
<rect x="1446.29" y="860.368" width="12.3115" height="11.2948" fill="#7A7A7A"/>
<rect x="1446.29" y="877.363" width="12.3115" height="11.2948" fill="#7A7A7A"/>
<rect x="1446.29" y="894.359" width="12.3115" height="11.2948" fill="#7A7A7A"/>
<rect x="1446.29" y="911.354" width="12.3115" height="11.2948" fill="#7A7A7A"/>
<rect x="1446.29" y="928.35" width="12.3115" height="11.2948" fill="#7A7A7A"/>
<rect x="1446.29" y="945.345" width="12.3115" height="11.2948" fill="#7A7A7A"/>
<rect x="1446.29" y="962.341" width="12.3115" height="11.2948" fill="#7A7A7A"/>
<rect x="1446.29" y="979.336" width="12.3115" height="11.2948" fill="#7A7A7A"/>
<rect x="1446.29" y="996.332" width="12.3115" height="11.2948" fill="#7A7A7A"/>
<rect x="1446.29" y="1013.33" width="12.3115" height="11.2948" fill="#7A7A7A"/>
<rect x="1446.29" y="1030.32" width="12.3115" height="11.2948" fill="#7A7A7A"/>
<rect x="1318.45" y="836.136" width="145.319" height="7.2365" fill="#C4C4C4"/>
<rect x="1356.68" y="863.895" width="30.142" height="45.5116" fill="white"/>
<rect x="1356.68" y="931.881" width="30.142" height="45.5116" fill="white"/>
<rect x="1372.19" y="995.744" width="37.3776" height="45.2858" fill="white"/>
<rect x="1398.03" y="863.895" width="30.142" height="45.5116" fill="white"/>
<rect x="1398.03" y="931.881" width="30.142" height="45.5116" fill="white"/>
<rect x="1359.39" y="866.831" width="10.953" height="39.6384" fill="#1CACAC"/>
<rect x="1400.75" y="866.831" width="10.953" height="39.6384" fill="#1CACAC"/>
<rect x="1400.75" y="934.818" width="10.953" height="39.6384" fill="#1CACAC"/>
<rect x="1359.41" y="934.818" width="10.953" height="39.6384" fill="#1CACAC"/>
<rect x="1373.13" y="866.831" width="10.953" height="39.6384" fill="#1CACAC"/>
<rect x="1373.13" y="934.841" width="10.953" height="39.6384" fill="#1CACAC"/>
<rect x="1414.49" y="866.831" width="10.953" height="39.6384" fill="#1CACAC"/>
<rect x="1414.49" y="934.818" width="10.953" height="39.6384" fill="#1CACAC"/>
<rect x="1375.87" y="999.868" width="30.0227" height="39.6384" fill="#1CACAC"/>
<mask id="mask9" mask-type="alpha" maskUnits="userSpaceOnUse" x="1373" y="866" width="12" height="41">
<rect x="1373.13" y="866.831" width="10.953" height="39.6384" fill="#1CACAC"/>
</mask>
<g mask="url(#mask9)">
<rect x="1349.33" y="883.046" width="45.3721" height="13.7686" transform="rotate(-45 1349.33 883.046)" fill="#9ADADA"/>
<rect x="1355.05" y="899.665" width="47.5885" height="6.14219" transform="rotate(-45 1355.05 899.665)" fill="#9ADADA"/>
</g>
<mask id="mask10" mask-type="alpha" maskUnits="userSpaceOnUse" x="1373" y="934" width="12" height="41">
<rect x="1373.13" y="934.841" width="10.953" height="39.6384" fill="#1CACAC"/>
</mask>
<g mask="url(#mask10)">
<rect x="1349.33" y="951.055" width="45.3721" height="13.7686" transform="rotate(-45 1349.33 951.055)" fill="#9ADADA"/>
<rect x="1355.05" y="967.675" width="47.5885" height="6.14219" transform="rotate(-45 1355.05 967.675)" fill="#9ADADA"/>
</g>
<mask id="mask11" mask-type="alpha" maskUnits="userSpaceOnUse" x="1414" y="866" width="12" height="41">
<rect x="1414.49" y="866.831" width="10.953" height="39.6384" fill="#1CACAC"/>
</mask>
<g mask="url(#mask11)">
<rect x="1390.68" y="883.046" width="45.3721" height="13.7686" transform="rotate(-45 1390.68 883.046)" fill="#9ADADA"/>
<rect x="1396.41" y="899.665" width="47.5885" height="6.14219" transform="rotate(-45 1396.41 899.665)" fill="#9ADADA"/>
</g>
<mask id="mask12" mask-type="alpha" maskUnits="userSpaceOnUse" x="1414" y="934" width="12" height="41">
<rect x="1414.49" y="934.818" width="10.953" height="39.6384" fill="#1CACAC"/>
</mask>
<g mask="url(#mask12)">
<rect x="1390.68" y="951.032" width="45.3721" height="13.7686" transform="rotate(-45 1390.68 951.032)" fill="#9ADADA"/>
<rect x="1396.41" y="967.652" width="47.5885" height="6.14219" transform="rotate(-45 1396.41 967.652)" fill="#9ADADA"/>
</g>
<mask id="mask13" mask-type="alpha" maskUnits="userSpaceOnUse" x="1375" y="986" width="31" height="54">
<rect x="1405.89" y="1039.51" width="30.0227" height="52.8854" transform="rotate(-180 1405.89 1039.51)" fill="#1CACAC"/>
</mask>
<g mask="url(#mask13)">
<rect width="97.8051" height="29.6798" transform="matrix(-0.899143 0.437655 -0.899143 -0.437655 1471.15 1017.87)" fill="#9ADADA"/>
<rect width="102.583" height="13.2402" transform="matrix(-0.899143 0.437655 -0.899143 -0.437655 1455.47 995.699)" fill="#9ADADA"/>
</g>
<mask id="mask14" mask-type="alpha" maskUnits="userSpaceOnUse" x="1359" y="866" width="12" height="41">
<rect x="1359.39" y="866.831" width="10.953" height="39.6384" fill="#1CACAC"/>
</mask>
<g mask="url(#mask14)">
<rect x="1349.33" y="883.046" width="45.3721" height="13.7686" transform="rotate(-45 1349.33 883.046)" fill="#9ADADA"/>
<rect x="1355.05" y="899.665" width="47.5885" height="6.14219" transform="rotate(-45 1355.05 899.665)" fill="#9ADADA"/>
</g>
<mask id="mask15" mask-type="alpha" maskUnits="userSpaceOnUse" x="1400" y="866" width="12" height="41">
<rect x="1400.75" y="866.831" width="10.953" height="39.6384" fill="#1CACAC"/>
</mask>
<g mask="url(#mask15)">
<rect x="1390.69" y="883.046" width="45.3721" height="13.7686" transform="rotate(-45 1390.69 883.046)" fill="#9ADADA"/>
<rect x="1396.41" y="899.665" width="47.5885" height="6.14219" transform="rotate(-45 1396.41 899.665)" fill="#9ADADA"/>
</g>
<mask id="mask16" mask-type="alpha" maskUnits="userSpaceOnUse" x="1400" y="934" width="12" height="41">
<rect x="1400.75" y="934.818" width="10.953" height="39.6384" fill="#1CACAC"/>
</mask>
<g mask="url(#mask16)">
<rect x="1390.69" y="951.032" width="45.3721" height="13.7686" transform="rotate(-45 1390.69 951.032)" fill="#9ADADA"/>
<rect x="1396.41" y="967.652" width="47.5885" height="6.14219" transform="rotate(-45 1396.41 967.652)" fill="#9ADADA"/>
</g>
<mask id="mask17" mask-type="alpha" maskUnits="userSpaceOnUse" x="1359" y="934" width="12" height="41">
<rect x="1359.41" y="934.818" width="10.953" height="39.6384" fill="#1CACAC"/>
</mask>
<g mask="url(#mask17)">
<rect x="1349.34" y="951.032" width="45.3721" height="13.7686" transform="rotate(-45 1349.34 951.032)" fill="#9ADADA"/>
<rect x="1355.06" y="967.652" width="47.5885" height="6.14219" transform="rotate(-45 1355.06 967.652)" fill="#9ADADA"/>
</g>
<rect x="1388.72" y="858.36" width="7.89472" height="4.01531" fill="#7A7A7A" fill-opacity="0.5"/>
<rect x="1342.86" y="883.01" width="7.89472" height="4.01531" fill="#7A7A7A" fill-opacity="0.5"/>
<rect x="1433.28" y="890.343" width="7.89472" height="4.01531" fill="#7A7A7A" fill-opacity="0.5"/>
<rect x="1388.72" y="924.334" width="7.89472" height="4.01531" fill="#7A7A7A" fill-opacity="0.5"/>
<rect x="1346.81" y="988.623" width="7.89472" height="4.01531" fill="#7A7A7A" fill-opacity="0.5"/>
<rect x="1413.1" y="986.621" width="7.89472" height="4.01531" fill="#7A7A7A" fill-opacity="0.5"/>
<rect x="1428.17" y="1013.33" width="7.89472" height="4.01531" fill="#7A7A7A" fill-opacity="0.5"/>
<rect x="1346.81" y="1032.28" width="7.89472" height="4.01531" fill="#7A7A7A" fill-opacity="0.5"/>
<rect x="1419.17" y="1034.28" width="7.89472" height="4.01531" fill="#7A7A7A" fill-opacity="0.5"/>
<rect x="1350.75" y="909.406" width="40.126" height="4.16893" fill="#7A7A7A"/>
<rect x="1394.43" y="909.406" width="40.126" height="4.16893" fill="#7A7A7A"/>
<rect x="1394.43" y="977.393" width="40.126" height="4.16893" fill="#7A7A7A"/>
<rect x="1350.75" y="977.393" width="40.126" height="4.16893" fill="#7A7A7A"/>
<rect x="1365.9" y="994.537" width="50.4677" height="13.089" fill="#A3A3A3" fill-opacity="0.5"/>
<rect x="1365.9" y="994.574" width="50.4677" height="4.16893" fill="#7A7A7A"/>
<rect x="1234.04" y="925.043" width="66.4914" height="120.184" fill="#C4C4C4"/>
<rect x="1242.45" y="965.187" width="24.3982" height="6.48184" fill="#A3A3A3" fill-opacity="0.5"/>
<rect x="1242.45" y="1006.54" width="24.3982" height="6.48184" fill="#A3A3A3" fill-opacity="0.5"/>
<rect x="1269" y="965.158" width="24.3982" height="6.48184" fill="#A3A3A3" fill-opacity="0.5"/>
<rect x="1269" y="1006.51" width="24.3982" height="6.48184" fill="#A3A3A3" fill-opacity="0.5"/>
<rect x="1228.74" y="925.043" width="5.30684" height="120.184" fill="#A0A0A0"/>
<rect x="1300.54" y="925.043" width="5.30684" height="120.184" fill="#A0A0A0"/>
<rect x="1234.04" y="925.043" width="66.4914" height="6.86765" fill="#B5B5B5"/>
<rect x="1219.95" y="1045.23" width="93.7999" height="6.86765" fill="#B5B5B5"/>
<rect x="1226.56" y="925.043" width="7.48587" height="6.86765" fill="#7A7A7A"/>
<rect x="1226.56" y="935.377" width="7.48587" height="6.86765" fill="#7A7A7A"/>
<rect x="1226.56" y="945.711" width="7.48587" height="6.86765" fill="#7A7A7A"/>
<rect x="1226.56" y="956.045" width="7.48587" height="6.86765" fill="#7A7A7A"/>
<rect x="1226.56" y="966.378" width="7.48587" height="6.86765" fill="#7A7A7A"/>
<rect x="1226.56" y="976.712" width="7.48587" height="6.86765" fill="#7A7A7A"/>
<rect x="1226.56" y="987.046" width="7.48587" height="6.86765" fill="#7A7A7A"/>
<rect x="1226.56" y="997.38" width="7.48587" height="6.86765" fill="#7A7A7A"/>
<rect x="1226.56" y="1007.71" width="7.48587" height="6.86765" fill="#7A7A7A"/>
<rect x="1226.56" y="1018.05" width="7.48587" height="6.86765" fill="#7A7A7A"/>
<rect x="1226.56" y="1028.38" width="7.48587" height="6.86765" fill="#7A7A7A"/>
<rect x="1226.56" y="1038.72" width="7.48587" height="6.86765" fill="#7A7A7A"/>
<rect x="1300.54" y="925.043" width="7.48587" height="6.86765" fill="#7A7A7A"/>
<rect x="1300.54" y="935.377" width="7.48587" height="6.86765" fill="#7A7A7A"/>
<rect x="1300.54" y="945.711" width="7.48587" height="6.86765" fill="#7A7A7A"/>
<rect x="1300.54" y="956.045" width="7.48587" height="6.86765" fill="#7A7A7A"/>
<rect x="1300.54" y="966.378" width="7.48587" height="6.86765" fill="#7A7A7A"/>
<rect x="1300.54" y="976.712" width="7.48587" height="6.86765" fill="#7A7A7A"/>
<rect x="1300.54" y="987.046" width="7.48587" height="6.86765" fill="#7A7A7A"/>
<rect x="1300.54" y="997.38" width="7.48587" height="6.86765" fill="#7A7A7A"/>
<rect x="1300.54" y="1007.71" width="7.48587" height="6.86765" fill="#7A7A7A"/>
<rect x="1300.54" y="1018.05" width="7.48587" height="6.86765" fill="#7A7A7A"/>
<rect x="1300.54" y="1028.38" width="7.48587" height="6.86765" fill="#7A7A7A"/>
<rect x="1300.54" y="1038.72" width="7.48587" height="6.86765" fill="#7A7A7A"/>
<rect x="1222.81" y="920.643" width="88.3595" height="4.40007" fill="#C4C4C4"/>
<rect x="1246.05" y="937.521" width="18.3275" height="27.6729" fill="white"/>
<rect x="1246.05" y="978.86" width="18.3275" height="27.6729" fill="white"/>
<rect x="1255.48" y="1017.69" width="22.7271" height="27.5355" fill="white"/>
<rect x="1271.19" y="937.521" width="18.3275" height="27.6729" fill="white"/>
<rect x="1271.19" y="978.86" width="18.3275" height="27.6729" fill="white"/>
<rect x="1247.7" y="939.307" width="6.65987" height="24.1017" fill="#1CACAC"/>
<rect x="1272.85" y="939.307" width="6.65987" height="24.1017" fill="#1CACAC"/>
<rect x="1272.85" y="980.645" width="6.65987" height="24.1017" fill="#1CACAC"/>
<rect x="1247.71" y="980.645" width="6.65987" height="24.1017" fill="#1CACAC"/>
<rect x="1256.06" y="939.307" width="6.65987" height="24.1017" fill="#1CACAC"/>
<rect x="1256.06" y="980.659" width="6.65987" height="24.1017" fill="#1CACAC"/>
<rect x="1281.2" y="939.307" width="6.65987" height="24.1017" fill="#1CACAC"/>
<rect x="1281.2" y="980.645" width="6.65987" height="24.1017" fill="#1CACAC"/>
<rect x="1257.72" y="1020.2" width="18.255" height="24.1017" fill="#1CACAC"/>
<mask id="mask18" mask-type="alpha" maskUnits="userSpaceOnUse" x="1256" y="939" width="7" height="25">
<rect x="1256.06" y="939.307" width="6.65987" height="24.1017" fill="#1CACAC"/>
</mask>
<g mask="url(#mask18)">
<rect x="1241.58" y="949.166" width="27.588" height="8.37182" transform="rotate(-45 1241.58 949.166)" fill="#9ADADA"/>
<rect x="1245.06" y="959.271" width="28.9357" height="3.73469" transform="rotate(-45 1245.06 959.271)" fill="#9ADADA"/>
</g>
<mask id="mask19" mask-type="alpha" maskUnits="userSpaceOnUse" x="1256" y="980" width="7" height="25">
<rect x="1256.06" y="980.659" width="6.65987" height="24.1017" fill="#1CACAC"/>
</mask>
<g mask="url(#mask19)">
<rect x="1241.58" y="990.518" width="27.588" height="8.37182" transform="rotate(-45 1241.58 990.518)" fill="#9ADADA"/>
<rect x="1245.06" y="1000.62" width="28.9357" height="3.73469" transform="rotate(-45 1245.06 1000.62)" fill="#9ADADA"/>
</g>
<mask id="mask20" mask-type="alpha" maskUnits="userSpaceOnUse" x="1281" y="939" width="7" height="25">
<rect x="1281.2" y="939.307" width="6.65987" height="24.1017" fill="#1CACAC"/>
</mask>
<g mask="url(#mask20)">
<rect x="1266.73" y="949.166" width="27.588" height="8.37182" transform="rotate(-45 1266.73 949.166)" fill="#9ADADA"/>
<rect x="1270.21" y="959.271" width="28.9357" height="3.73469" transform="rotate(-45 1270.21 959.271)" fill="#9ADADA"/>
</g>
<mask id="mask21" mask-type="alpha" maskUnits="userSpaceOnUse" x="1281" y="980" width="7" height="25">
<rect x="1281.2" y="980.645" width="6.65987" height="24.1017" fill="#1CACAC"/>
</mask>
<g mask="url(#mask21)">
<rect x="1266.73" y="990.504" width="27.588" height="8.37182" transform="rotate(-45 1266.73 990.504)" fill="#9ADADA"/>
<rect x="1270.21" y="1000.61" width="28.9357" height="3.73469" transform="rotate(-45 1270.21 1000.61)" fill="#9ADADA"/>
</g>
<mask id="mask22" mask-type="alpha" maskUnits="userSpaceOnUse" x="1257" y="1012" width="19" height="33">
<rect x="1275.98" y="1044.3" width="18.255" height="32.1564" transform="rotate(-180 1275.98 1044.3)" fill="#1CACAC"/>
</mask>
<g mask="url(#mask22)">
<rect width="59.4694" height="18.0465" transform="matrix(-0.899143 0.437655 -0.899143 -0.437655 1315.65 1031.15)" fill="#9ADADA"/>
<rect width="62.3744" height="8.05058" transform="matrix(-0.899143 0.437655 -0.899143 -0.437655 1306.12 1017.66)" fill="#9ADADA"/>
</g>
<mask id="mask23" mask-type="alpha" maskUnits="userSpaceOnUse" x="1247" y="939" width="8" height="25">
<rect x="1247.7" y="939.307" width="6.65987" height="24.1017" fill="#1CACAC"/>
</mask>
<g mask="url(#mask23)">
<rect x="1241.58" y="949.166" width="27.588" height="8.37182" transform="rotate(-45 1241.58 949.166)" fill="#9ADADA"/>
<rect x="1245.06" y="959.271" width="28.9357" height="3.73469" transform="rotate(-45 1245.06 959.271)" fill="#9ADADA"/>
</g>
<mask id="mask24" mask-type="alpha" maskUnits="userSpaceOnUse" x="1272" y="939" width="8" height="25">
<rect x="1272.85" y="939.307" width="6.65987" height="24.1017" fill="#1CACAC"/>
</mask>
<g mask="url(#mask24)">
<rect x="1266.73" y="949.166" width="27.588" height="8.37182" transform="rotate(-45 1266.73 949.166)" fill="#9ADADA"/>
<rect x="1270.21" y="959.271" width="28.9357" height="3.73469" transform="rotate(-45 1270.21 959.271)" fill="#9ADADA"/>
</g>
<mask id="mask25" mask-type="alpha" maskUnits="userSpaceOnUse" x="1272" y="980" width="8" height="25">
<rect x="1272.85" y="980.645" width="6.65987" height="24.1017" fill="#1CACAC"/>
</mask>
<g mask="url(#mask25)">
<rect x="1266.73" y="990.504" width="27.588" height="8.37182" transform="rotate(-45 1266.73 990.504)" fill="#9ADADA"/>
<rect x="1270.21" y="1000.61" width="28.9357" height="3.73469" transform="rotate(-45 1270.21 1000.61)" fill="#9ADADA"/>
</g>
<mask id="mask26" mask-type="alpha" maskUnits="userSpaceOnUse" x="1247" y="980" width="8" height="25">
<rect x="1247.71" y="980.645" width="6.65987" height="24.1017" fill="#1CACAC"/>
</mask>
<g mask="url(#mask26)">
<rect x="1241.59" y="990.504" width="27.588" height="8.37182" transform="rotate(-45 1241.59 990.504)" fill="#9ADADA"/>
<rect x="1245.07" y="1000.61" width="28.9357" height="3.73469" transform="rotate(-45 1245.07 1000.61)" fill="#9ADADA"/>
</g>
<rect x="1265.53" y="934.156" width="4.8003" height="2.44147" fill="#7A7A7A" fill-opacity="0.5"/>
<rect x="1237.65" y="949.144" width="4.8003" height="2.44147" fill="#7A7A7A" fill-opacity="0.5"/>
<rect x="1292.63" y="953.603" width="4.8003" height="2.44147" fill="#7A7A7A" fill-opacity="0.5"/>
<rect x="1265.53" y="974.271" width="4.8003" height="2.44147" fill="#7A7A7A" fill-opacity="0.5"/>
<rect x="1240.05" y="1013.36" width="4.8003" height="2.44147" fill="#7A7A7A" fill-opacity="0.5"/>
<rect x="1280.35" y="1012.14" width="4.8003" height="2.44147" fill="#7A7A7A" fill-opacity="0.5"/>
<rect x="1289.52" y="1028.38" width="4.8003" height="2.44147" fill="#7A7A7A" fill-opacity="0.5"/>
<rect x="1240.05" y="1039.9" width="4.8003" height="2.44147" fill="#7A7A7A" fill-opacity="0.5"/>
<rect x="1284.05" y="1041.12" width="4.8003" height="2.44147" fill="#7A7A7A" fill-opacity="0.5"/>
<rect x="1242.45" y="965.194" width="24.3982" height="2.53487" fill="#7A7A7A"/>
<rect x="1269" y="965.194" width="24.3982" height="2.53487" fill="#7A7A7A"/>
<rect x="1269" y="1006.53" width="24.3982" height="2.53487" fill="#7A7A7A"/>
<rect x="1242.45" y="1006.53" width="24.3982" height="2.53487" fill="#7A7A7A"/>
<rect x="1251.66" y="1016.96" width="30.6863" height="7.95863" fill="#A3A3A3" fill-opacity="0.5"/>
<rect x="1251.66" y="1016.98" width="30.6863" height="2.53487" fill="#7A7A7A"/>
</g>
<defs>
<clipPath id="clip0">
<rect x="0.93457" width="1920" height="1080" fill="white"/>
</clipPath>
</defs>
</svg>
